<svg clip-rule="evenodd" fill-rule="evenodd" stroke-linejoin="round" stroke-miterlimit="2" viewBox="0 0 24 24" xmlns="http://www.w3.org/2000/svg"><path d="m21 4c0-.478-.379-1-1-1h-16c-.62 0-1 .519-1 1v16c0 .621.52 1 1 1h16c.478 0 1-.379 1-1zm-1.5 5.505v9.995h-15v-9.995zm0-1.5h-15v-3.505h15zm-2.3-2.527c.442 0 .8.359.8.8 0 .442-.358.8-.8.8s-.8-.358-.8-.8c0-.441.358-.8.8-.8zm-1.65.777c0-.397-.352-.75-.75-.75-1.695 0-6.355 0-8.05 0-.399 0-.75.353-.75.75s.351.75.75.75h8.05c.398 0 .75-.353.75-.75z" fill-rule="nonzero"/></svg>